<?xml version="1.0" encoding="UTF-8" standalone="no"?>
<!DOCTYPE svg PUBLIC "-//W3C//DTD SVG 1.1//EN" "http://www.w3.org/Graphics/SVG/1.1/DTD/svg11.dtd">
<svg xmlns="http://www.w3.org/2000/svg" xmlns:xlink="http://www.w3.org/1999/xlink" version="1.1" width="1984.25pt" height="1913.39pt" viewBox="0 0 1984.25 1913.39">
<g enable-background="new">
<g id="Layer-1" data-name="Layer 1">
<clipPath id="cp0">
<path transform="matrix(1,0,0,-1,0,1913.39)" d="M 71 34.999 L 1913.52 34.999 L 1913.52 1877.52 L 71 1877.52 Z "/>
</clipPath>
<g clip-path="url(#cp0)">
<path transform="matrix(1,0,0,-1,992.2598,1878.391)" d="M 0 0 C 508.798 0 921.26 412.463 921.26 921.26 C 921.26 1430.059 508.798 1842.521 0 1842.521 C -508.798 1842.521 -921.26 1430.059 -921.26 921.26 C -921.26 412.463 -508.798 0 0 0 " fill="#dc0a32"/>
<path transform="matrix(1,0,0,-1,729.6772,236.74304)" d="M 0 0 L -130.348 -266.867 L -260.311 0 L -278.822 0 L -278.822 -289.234 L -267.252 -289.234 L -267.252 -15.04 L -131.505 -294.633 L 5.013 -15.04 L 5.013 -289.234 L 17.74 -289.234 L 17.74 0 Z M 96.794 -289.234 L 109.52 -289.234 L 109.52 0 L 96.794 0 Z M 305.04 -40.878 L 305.04 -21.21 C 291.157 -3.73 272.386 5.013 248.735 5.013 C 231.767 5.013 217.498 .253 205.929 -9.255 C 194.359 -18.77 188.575 -32.527 188.575 -50.52 L 188.575 -53.219 C 188.575 -64.788 191.913 -75.46 198.601 -85.228 C 205.284 -95.001 213.642 -103.1 223.668 -109.523 C 233.695 -115.953 244.62 -122.894 256.448 -130.348 C 268.271 -137.808 279.202 -144.943 289.228 -151.752 C 299.255 -158.567 307.607 -167.31 314.295 -177.975 C 320.978 -188.647 324.323 -200.409 324.323 -213.262 L 324.323 -215.576 C 324.323 -236.148 317.249 -252.598 303.112 -264.939 C 288.969 -277.279 272.26 -283.45 252.977 -283.45 C 233.695 -283.45 217.558 -278.888 204.579 -269.759 C 191.594 -260.636 181.76 -248.741 175.077 -234.087 L 175.077 -254.912 C 192.817 -281.395 217.751 -294.633 249.892 -294.633 C 274.315 -294.633 294.821 -287.439 311.403 -273.037 C 327.987 -258.642 336.277 -239.233 336.277 -214.805 L 336.277 -210.948 C 336.277 -198.608 333.77 -187.297 328.757 -177.011 C 323.743 -166.731 317.314 -158.054 309.475 -150.98 C 301.629 -143.912 292.892 -137.23 283.25 -130.927 C 273.61 -124.63 263.968 -118.719 254.327 -113.187 C 244.686 -107.661 236.009 -102.07 228.296 -96.411 C 210.297 -83.046 201.301 -68.259 201.301 -52.062 L 201.301 -50.134 C 201.301 -36.51 205.736 -25.778 214.606 -17.932 C 223.476 -10.093 234.207 -6.17 246.807 -6.17 C 259.401 -6.17 270.778 -9.255 280.937 -15.426 C 291.09 -21.596 299.122 -30.08 305.04 -40.878 M 351.7 0 L 351.7 -11.184 L 418.417 -11.184 L 418.417 -289.234 L 431.143 -289.234 L 431.143 -11.184 L 497.089 -11.184 L 497.089 0 Z M 553.004 -289.234 L 656.743 -289.234 L 656.743 -278.051 L 565.731 -278.051 L 565.731 -179.711 L 641.704 -179.711 L 641.704 -168.527 L 565.731 -168.527 L 565.731 -11.184 L 656.743 -11.184 L 656.743 0 L 553.004 0 Z M 714.585 -289.234 L 726.926 -289.234 L 726.926 -197.451 L 814.467 -289.234 L 831.05 -289.234 L 731.554 -184.339 L 734.253 -184.339 C 756.362 -184.339 777.06 -175.216 796.342 -156.958 C 815.625 -138.706 825.266 -117.176 825.266 -92.362 C 825.266 -67.554 815.817 -45.958 796.921 -27.574 C 778.024 -9.195 756.102 0 731.168 0 L 714.585 0 Z M 726.926 -11.184 L 731.939 -11.184 C 753.017 -11.184 771.788 -19.282 788.245 -35.479 C 804.694 -51.677 812.925 -70.706 812.925 -92.555 C 812.925 -114.41 804.954 -133.307 789.015 -149.245 C 773.071 -165.189 754.692 -173.155 733.868 -173.155 L 726.926 -173.155 Z " fill="#ffffff"/>
<path transform="matrix(1,0,0,-1,751.3125,1301.4126)" d="M 0 0 L -111.41 0 L -111.41 -41.455 C -111.41 -56.15 -116.592 -68.883 -126.955 -79.672 C -137.319 -90.48 -150.273 -95.863 -165.819 -95.863 C -181.365 -95.863 -194.319 -90.48 -204.683 -79.711 C -215.047 -68.943 -220.228 -56.211 -220.228 -41.557 L -220.228 571.4 C -220.228 586.054 -215.047 598.766 -204.683 609.535 C -194.319 620.303 -181.365 625.708 -165.819 625.708 C -150.273 625.708 -137.319 620.323 -126.955 609.555 C -116.592 598.786 -111.41 586.075 -111.41 571.44 L -111.41 119.182 L 0 119.182 L 0 569.052 C 0 614.717 -16.052 653.722 -48.135 686.048 C -80.217 718.353 -119.223 734.526 -165.171 734.526 C -211.12 734.526 -250.368 718.353 -282.876 686.007 C -315.384 653.661 -331.638 614.635 -331.638 568.93 L -331.638 -39.088 C -331.638 -84.813 -315.242 -123.838 -282.411 -156.184 C -249.599 -188.529 -209.865 -204.684 -163.228 -204.684 C -118.332 -204.684 -79.894 -188.49 -47.932 -156.104 C -15.991 -123.717 0 -84.65 0 -38.863 Z M 400.288 729.344 L 288.878 729.344 L 288.878 229.297 L 183.946 229.297 L 183.946 729.344 L 72.536 729.344 L 72.536 -198.205 L 183.946 -198.205 L 183.946 125.66 L 288.878 125.66 L 288.878 -198.205 L 400.288 -198.205 Z M 813.533 729.344 L 702.123 729.344 L 702.123 -41.455 C 702.123 -56.15 696.718 -68.883 685.93 -79.672 C 675.121 -90.48 662.389 -95.863 647.714 -95.863 C 632.168 -95.863 618.991 -90.48 608.202 -79.672 C 597.393 -68.883 592.009 -56.15 592.009 -41.455 L 592.009 729.344 L 480.6 729.344 L 480.6 -38.863 C 480.6 -84.65 497.217 -123.717 530.475 -156.104 C 563.711 -188.49 603.223 -204.684 649.009 -204.684 C 694.775 -204.684 733.639 -188.49 765.6 -156.104 C 797.542 -123.717 813.533 -84.65 813.533 -38.863 Z " fill="#ffffff"/>
<path transform="matrix(1,0,0,-1,846.0127,1626.1039)" d="M 0 0 C 13.292 0 20.551 5.844 20.551 24.039 L 6.505 24.039 C 6.316 18.664 6.599 10.18 0 10.18 C -8.013 10.18 -9.05 17.723 -9.05 35.162 C -9.05 52.602 -8.013 60.145 0 60.145 C 4.242 60.145 5.845 56.75 5.845 47.699 L 19.797 47.699 C 20.362 62.313 14.517 70.324 0 70.324 C -23.473 70.324 -23.473 53.168 -23.473 35.162 C -23.473 17.344 -23.473 0 0 0 M 48.077 41.949 L 48.077 69.193 L 33.843 69.193 L 33.843 1.131 L 48.077 1.131 L 48.077 31.486 L 64.386 31.486 L 64.386 1.131 L 78.62 1.131 L 78.62 69.193 L 64.386 69.193 L 64.386 41.949 Z M 126.508 69.193 L 126.508 21.869 C 126.508 14.328 123.68 10.18 117.458 10.18 C 112.274 10.18 108.691 13.48 108.691 21.869 L 108.691 69.193 L 94.457 69.193 L 94.457 20.928 C 94.457 8.107 101.998 0 117.647 0 C 134.992 0 140.743 10.746 140.743 20.928 L 140.743 69.193 Z M 194.757 1.131 L 194.757 30.826 L 214.93 30.826 L 214.93 41.289 L 194.757 41.289 L 194.757 58.73 L 215.873 58.73 L 215.873 69.193 L 180.522 69.193 L 180.522 1.131 Z M 258.198 69.193 L 258.198 21.869 C 258.198 14.328 255.37 10.18 249.148 10.18 C 243.964 10.18 240.382 13.48 240.382 21.869 L 240.382 69.193 L 226.146 69.193 L 226.146 20.928 C 226.146 8.107 233.687 0 249.337 0 C 266.683 0 272.433 10.746 272.433 20.928 L 272.433 69.193 Z M 301.184 1.131 L 301.184 50.904 L 301.373 50.904 L 319.943 1.131 L 338.703 1.131 L 338.703 69.193 L 325.411 69.193 L 325.411 22.059 L 325.223 22.059 L 307.123 69.193 L 287.892 69.193 L 287.892 1.131 Z M 399.694 48.266 C 400.543 62.5 391.87 70.324 377.918 70.324 C 354.634 70.324 353.786 52.885 353.786 35.729 C 353.786 9.898 356.519 0 380.464 0 C 386.12 0 395.83 1.508 399.694 2.262 L 399.694 36.766 L 377.729 36.766 L 377.729 26.301 L 385.46 26.301 L 385.46 11.217 C 383.292 10.463 380.747 9.898 378.39 9.898 C 370.282 9.898 368.209 13.668 368.209 34.975 C 368.209 48.17 368.209 60.145 377.069 60.145 C 384.612 60.145 385.648 54.582 385.554 48.266 Z M 476.145 1.131 L 476.145 12.443 L 454.84 12.443 L 454.84 69.193 L 440.604 69.193 L 440.604 1.131 Z M 524.032 1.131 L 524.032 11.594 L 500.37 11.594 L 500.37 31.486 L 521.487 31.486 L 521.487 41.949 L 500.37 41.949 L 500.37 58.73 L 523.278 58.73 L 523.278 69.193 L 486.136 69.193 L 486.136 1.131 Z M 568.81 69.193 L 568.81 21.869 C 568.81 14.328 565.98 10.18 559.76 10.18 C 554.575 10.18 550.993 13.48 550.993 21.869 L 550.993 69.193 L 536.758 69.193 L 536.758 20.928 C 536.758 8.107 544.3 0 559.948 0 C 577.294 0 583.044 10.746 583.044 20.928 L 583.044 69.193 Z M 611.795 1.131 L 611.795 50.904 L 611.983 50.904 L 630.555 1.131 L 649.313 1.131 L 649.313 69.193 L 636.022 69.193 L 636.022 22.059 L 635.834 22.059 L 617.733 69.193 L 598.504 69.193 L 598.504 1.131 Z M 710.306 48.266 C 711.153 62.5 702.48 70.324 688.53 70.324 C 665.245 70.324 664.396 52.885 664.396 35.729 C 664.396 9.898 667.131 0 691.075 0 C 696.73 0 706.44 1.508 710.306 2.262 L 710.306 36.766 L 688.341 36.766 L 688.341 26.301 L 696.071 26.301 L 696.071 11.217 C 693.903 10.463 691.357 9.898 689.001 9.898 C 680.894 9.898 678.819 13.668 678.819 34.975 C 678.819 48.17 678.819 60.145 687.681 60.145 C 695.223 60.145 696.26 54.582 696.166 48.266 Z " fill="#ffffff"/>
<path transform="matrix(1,0,0,-1,1458.3447,1672.3344)" d="M 0 0 L 0 2.738 L -9.804 2.738 L -9.804 11.313 L -.892 11.313 L -.892 14.051 L -9.804 14.051 L -9.804 22.008 L -.206 22.008 L -.206 24.746 L -12.953 24.746 L -12.953 0 Z M 2.781 7.367 C 2.712 5.002 2.712 -.582 10.012 -.514 C 14.093 -.514 17.688 1.164 17.688 6.373 C 17.688 14.227 6.582 13.439 6.582 18.889 C 6.582 21.562 8.502 22.523 10.389 22.523 C 13.373 22.523 14.229 20.74 14.196 18.031 L 17.483 18.031 C 17.688 23.07 15.155 25.26 10.629 25.26 C 6.479 25.26 3.364 22.934 3.364 18.545 C 3.364 11.104 14.47 11.719 14.47 6.236 C 14.47 3.287 12.55 2.225 10.046 2.225 C 8.021 2.225 5.896 3.287 5.896 6.646 L 5.896 7.367 Z M 19.578 24.746 L 19.578 22.008 L 26.091 22.008 L 26.091 0 L 29.24 0 L 29.24 22.008 L 35.754 22.008 L 35.754 24.746 Z M 52.379 23.787 L 49.674 23.787 C 48.715 22.998 46.453 21.285 45.664 20.941 L 45.664 17.926 L 49.229 20.324 L 49.229 0 L 52.379 0 Z M 64.584 21.871 C 67.294 21.871 67.774 19.092 67.774 16.934 C 67.774 14.566 67.328 11.994 64.584 11.994 C 61.84 11.994 61.394 14.566 61.394 16.934 C 61.394 19.092 61.874 21.871 64.584 21.871 M 64.584 24.164 C 61.428 24.164 58.244 22.213 58.244 16.863 C 58.244 10.352 61.805 9.359 63.692 9.359 C 65.51 9.359 67.019 9.941 67.774 11.584 L 67.843 11.584 C 67.843 5.482 67.637 2.121 64.584 2.121 C 62.56 2.121 61.874 3.939 61.874 5.687 L 58.724 5.687 C 58.656 1.916 61.018 -.514 64.584 -.514 C 71.026 -.514 70.992 5.584 70.992 11.789 C 70.992 18.201 71.095 24.164 64.584 24.164 M 75.144 8.531 L 80.286 20.906 L 80.354 20.906 L 80.354 8.531 Z M 80.354 5.793 L 80.354 0 L 83.298 0 L 83.298 5.793 L 86.108 5.793 L 86.108 8.531 L 83.298 8.531 L 83.298 23.787 L 79.12 23.787 L 72.401 8.531 L 72.401 5.793 Z M 100.334 0 L 100.334 2.738 L 90.907 2.738 C 97.047 10.83 99.717 12.613 99.717 17.928 C 99.717 22.213 97.663 24.164 93.377 24.164 C 89.333 24.164 87.347 21.596 87.621 17.654 L 90.839 17.654 C 90.805 19.574 91.251 21.529 93.618 21.529 C 95.642 21.529 96.568 20.26 96.568 18.373 C 96.568 14.26 94.51 12.477 87.552 2.738 L 87.552 0 Z M 0 0 L 0 2.738 L -9.804 2.738 L -9.804 11.313 L -.892 11.313 L -.892 14.051 L -9.804 14.051 L -9.804 22.008 L -.206 22.008 L -.206 24.746 L -12.953 24.746 L -12.953 0 Z M 2.781 7.367 C 2.712 5.002 2.712 -.582 10.012 -.514 C 14.093 -.514 17.688 1.164 17.688 6.373 C 17.688 14.227 6.582 13.439 6.582 18.889 C 6.582 21.562 8.502 22.523 10.389 22.523 C 13.373 22.523 14.229 20.74 14.196 18.031 L 17.483 18.031 C 17.688 23.07 15.155 25.26 10.629 25.26 C 6.479 25.26 3.364 22.934 3.364 18.545 C 3.364 11.104 14.47 11.719 14.47 6.236 C 14.47 3.287 12.55 2.225 10.046 2.225 C 8.021 2.225 5.896 3.287 5.896 6.646 L 5.896 7.367 Z M 19.578 24.746 L 19.578 22.008 L 26.091 22.008 L 26.091 0 L 29.24 0 L 29.24 22.008 L 35.754 22.008 L 35.754 24.746 Z M 52.379 23.787 L 49.674 23.787 C 48.715 22.998 46.453 21.285 45.664 20.941 L 45.664 17.926 L 49.229 20.324 L 49.229 0 L 52.379 0 Z M 64.584 21.871 C 67.294 21.871 67.774 19.092 67.774 16.934 C 67.774 14.566 67.328 11.994 64.584 11.994 C 61.84 11.994 61.394 14.566 61.394 16.934 C 61.394 19.092 61.874 21.871 64.584 21.871 M 64.584 24.164 C 61.428 24.164 58.244 22.213 58.244 16.863 C 58.244 10.352 61.805 9.359 63.692 9.359 C 65.51 9.359 67.019 9.941 67.774 11.584 L 67.843 11.584 C 67.843 5.482 67.637 2.121 64.584 2.121 C 62.56 2.121 61.874 3.939 61.874 5.687 L 58.724 5.687 C 58.656 1.916 61.018 -.514 64.584 -.514 C 71.026 -.514 70.992 5.584 70.992 11.789 C 70.992 18.201 71.095 24.164 64.584 24.164 M 75.144 8.531 L 80.286 20.906 L 80.354 20.906 L 80.354 8.531 Z M 80.354 5.793 L 80.354 0 L 83.298 0 L 83.298 5.793 L 86.108 5.793 L 86.108 8.531 L 83.298 8.531 L 83.298 23.787 L 79.12 23.787 L 72.401 8.531 L 72.401 5.793 Z M 100.334 0 L 100.334 2.738 L 90.907 2.738 C 97.047 10.83 99.717 12.613 99.717 17.928 C 99.717 22.213 97.663 24.164 93.377 24.164 C 89.333 24.164 87.347 21.596 87.621 17.654 L 90.839 17.654 C 90.805 19.574 91.251 21.529 93.618 21.529 C 95.642 21.529 96.568 20.26 96.568 18.373 C 96.568 14.26 94.51 12.477 87.552 2.738 L 87.552 0 Z " fill="#ffffff"/>
</g>
<clipPath id="cp1">
<path transform="matrix(1,0,0,-1,0,1913.39)" d="M 419.578 260.6 L 716.114 260.6 L 716.114 357.345 L 419.578 357.345 Z "/>
</clipPath>
<g clip-path="url(#cp1)">
<path transform="matrix(1,0,0,-1,698.9663,1587.7699)" d="M 0 0 C .336 1.149 .667 2.272 .996 3.396 C -.089 3.658 -1.156 4.06 -2.256 4.148 C -3.832 4.277 -5.433 4.299 -6.999 4.115 C -7.671 4.04 -8.767 3.392 -8.819 2.907 C -9.033 .989 -8.906 -.971 -8.906 -3.614 C -7.925 -2.738 -7.444 -2.457 -7.158 -2.033 C -4.456 1.943 -4.464 1.952 0 0 M -29.046 -1.418 L -29.037 -1.418 C -29.037 -2.585 -29.197 -3.782 -28.972 -4.904 C -28.858 -5.471 -28.064 -6.311 -27.562 -6.324 C -22.43 -6.447 -21.496 -5.495 -21.496 -.487 C -21.496 .427 -21.326 1.398 -21.568 2.246 C -21.756 2.907 -22.36 3.793 -22.948 3.953 C -27.542 5.175 -29.046 3.985 -29.046 -.668 Z M -2.714 -5.004 C -4.08 -5.145 -4.975 -5.294 -5.869 -5.318 C -8.245 -5.377 -8.941 -6.595 -8.875 -8.889 C -8.721 -14.012 -8.25 -14.613 -3.15 -14.873 C -2.563 -14.904 -1.977 -14.924 -1.39 -14.926 C 4.475 -14.959 7.572 -12.015 7.803 -6.124 C 7.829 -5.537 7.633 -4.629 7.245 -4.424 C 6.836 -4.205 5.99 -4.516 5.481 -4.832 C 3.217 -6.255 1.034 -7.821 -1.252 -9.207 C -1.994 -9.658 -2.972 -9.724 -4.348 -10.105 C -3.727 -8.153 -3.303 -6.844 -2.714 -5.004 M -75.984 -13.344 C -75.133 -13.221 -74.287 -13.002 -73.438 -12.995 C -67.652 -12.967 -61.858 -12.831 -56.081 -13.041 C -53.211 -13.147 -50.999 -12.493 -49.439 -10.034 C -48.06 -7.86 -46.543 -7.954 -44.756 -9.62 C -43.569 -10.724 -42.194 -11.618 -40.386 -13.008 C -40.285 -11.424 -40.183 -10.556 -40.183 -9.685 C -40.17 -3.981 -40.198 1.721 -40.166 7.426 C -40.148 10.917 -39.19 11.559 -36.104 9.965 C -32.341 8.026 -28.605 6.341 -24.165 6.852 C -22.378 7.06 -21.627 7.571 -21.647 9.414 C -21.71 15.03 -21.686 20.648 -21.662 26.271 C -21.641 31.022 -20.707 31.799 -16.138 30.95 C -13.177 30.4 -10.216 29.84 -7.257 29.257 C -7.054 29.217 -6.895 28.96 -6.638 28.742 C -6.742 28.427 -6.749 27.948 -6.95 27.844 C -10.355 26.082 -9.051 22.943 -9.155 20.247 C -9.172 19.814 -8.872 19.252 -8.534 18.949 C -7.558 18.059 -1.37 18.48 -.358 19.444 C -.113 19.676 .103 19.938 .311 20.202 C 4.419 25.486 4.144 24.443 8.501 20.756 C 9.933 19.545 11.294 18.246 13.25 16.479 C 11.576 16.399 10.692 16.319 9.806 16.318 C 4.526 16.305 -.763 16.246 -6.046 16.34 C -8.248 16.384 -9.022 15.508 -8.976 13.364 C -8.819 5.885 -9.917 7.079 -2.64 6.815 C .128 6.717 2.117 7.604 3.998 9.549 C 7.031 12.677 7.803 12.602 11.115 9.799 C 12.651 8.502 14.277 7.3 15.739 5.921 C 17.164 4.578 16.85 3.484 14.999 2.794 C 10.688 1.178 10.753 1.181 11.12 -3.499 C 11.242 -5.059 10.958 -6.662 10.766 -8.236 C 10.509 -10.358 11.351 -11.864 12.926 -13.265 C 16.151 -16.123 15.68 -19.17 11.722 -21.029 C 10.482 -21.613 8.983 -21.865 7.603 -21.88 C .306 -21.963 -6.991 -21.937 -14.29 -21.912 C -18.992 -21.896 -21.365 -19.486 -21.413 -14.753 C -21.431 -12.991 -21.427 -11.232 -21.418 -9.469 C -21.405 -8.07 -22.018 -7.43 -23.443 -7.719 C -23.611 -7.752 -23.77 -7.794 -23.936 -7.827 C -29.954 -9.122 -29.168 -8.039 -29.214 -14.031 C -29.251 -18.225 -29.425 -22.43 -29.188 -26.608 C -28.27 -42.815 -36.05 -53.892 -49.576 -61.646 C -50.438 -62.137 -51.419 -62.424 -53.061 -63.1 C -52.542 -61.722 -52.441 -61.053 -52.087 -60.581 C -43.827 -49.707 -40.669 -37.236 -40.491 -23.815 C -40.46 -21.385 -40.368 -18.953 -40.235 -16.524 C -40.157 -15.073 -40.615 -14.334 -42.203 -14.367 C -45.56 -14.429 -48.915 -14.316 -52.267 -14.413 C -55.164 -14.492 -56.888 -15.978 -57.643 -18.801 C -58.206 -20.908 -58.741 -23.023 -59.277 -25.132 C -59.624 -26.508 -59.127 -27.153 -57.661 -27.226 C -55.714 -27.326 -54.117 -26.917 -52.69 -25.415 C -50.252 -22.857 -48.952 -22.925 -46.354 -25.352 C -45.802 -25.865 -45.306 -26.46 -44.704 -26.896 C -42.478 -28.515 -42.112 -30.557 -42.884 -33.107 C -44.634 -38.884 -46.118 -44.737 -47.951 -50.487 C -49.901 -56.591 -53.851 -60.938 -60.073 -62.978 C -62.625 -63.813 -64.9 -63.008 -65.439 -60.467 C -66.441 -55.734 -69.349 -53.514 -73.846 -52.744 C -74.754 -52.587 -75.592 -52.012 -76.464 -51.632 C -76.48 -51.335 -76.498 -51.043 -76.515 -50.746 C -75.527 -50.499 -74.529 -49.997 -73.558 -50.045 C -71.048 -50.17 -68.557 -50.548 -66.054 -50.8 C -62.085 -51.198 -58.887 -49.087 -58.092 -45.165 C -57.145 -40.483 -56.452 -35.749 -55.806 -31.016 C -55.709 -30.34 -56.462 -28.924 -56.823 -28.922 C -58.027 -28.922 -59.257 -29.331 -60.41 -29.766 C -60.691 -29.873 -60.729 -30.669 -60.855 -31.156 C -62.157 -36.113 -62.155 -36.113 -67.359 -35.443 C -73.575 -34.652 -73.581 -34.649 -72.029 -28.478 C -71.193 -25.15 -70.325 -21.826 -69.491 -18.49 C -68.706 -15.322 -68.979 -15.028 -72.192 -14.954 C -73.479 -14.926 -74.763 -14.681 -76.043 -14.53 C -76.021 -14.137 -76.001 -13.738 -75.984 -13.344 " fill="#ffffff"/>
<path transform="matrix(1,0,0,-1,637.1821,1578.1703)" d="M 0 0 L 0 -5.526 C 0 -10.585 -.002 -10.52 5.075 -10.449 C 6.904 -10.424 7.626 -9.789 7.593 -7.942 C 7.514 -3.505 7.569 .932 7.569 5.366 C 7.569 10.58 7.569 10.536 2.239 10.287 C .659 10.216 -.048 9.647 -.017 8.036 C .043 5.356 0 2.678 0 0 M -11.407 -.801 C -11.407 3.979 -11.458 8.758 -11.386 13.536 C -11.337 16.962 -10.249 17.647 -7.184 16.118 C -3.552 14.305 .039 12.745 4.298 13.156 C 6.362 13.357 7.936 13.9 9.369 15.389 C 12.184 18.313 13.201 18.307 16.391 15.769 C 16.655 15.563 16.888 15.309 17.167 15.132 C 19.607 13.593 21.233 12.091 19.083 8.853 C 18.143 7.44 18.433 5.121 18.402 3.21 C 18.319 -1.567 18.385 -6.345 18.37 -11.129 C 18.361 -12.699 15.845 -16.149 14.361 -16.192 C 12.378 -16.249 10.377 -15.869 8.396 -15.613 C 8.156 -15.584 7.925 -15.188 7.761 -14.914 C 7.327 -14.194 7 -12.87 6.507 -12.811 C 4.617 -12.59 2.67 -12.675 .777 -12.887 C .428 -12.927 -.062 -14.104 -.027 -14.734 C .061 -16.47 -.76 -17.091 -2.344 -17.344 C -4.072 -17.624 -5.754 -18.185 -7.475 -18.534 C -10.382 -19.125 -11.39 -18.32 -11.407 -15.392 C -11.436 -10.526 -11.417 -5.665 -11.417 -.801 Z " fill="#ffffff"/>
<path transform="matrix(1,0,0,-1,711.9053,1624.8099)" d="M 0 0 C -.301 -1.156 -.693 -2.146 -.796 -3.161 C -.927 -4.488 -.681 -5.858 -.855 -7.175 C -1.295 -10.456 -.176 -12.882 2.354 -15.042 C 5.333 -17.589 4.618 -21.42 1.05 -23.127 C .17 -23.544 -.877 -23.792 -1.848 -23.806 C -7.041 -23.871 -12.236 -23.887 -17.425 -23.816 C -20.829 -23.772 -23.181 -21.803 -23.285 -18.187 C -23.528 -9.731 -23.464 -1.271 -23.373 7.189 C -23.347 9.535 -21.793 10.635 -19.489 10.378 C -16.995 10.096 -14.481 9.854 -12.036 9.321 C -10.956 9.085 -10.028 8.167 -9.067 7.092 C -11.385 6.979 -11.889 5.858 -11.861 4.087 C -11.793 .064 -11.843 -3.954 -11.835 -7.979 C -11.83 -9.76 -11.522 -11.383 -9.352 -11.72 C -7.122 -12.067 -6.504 -10.523 -5.974 -8.824 C -5.177 -6.271 -4.364 -3.716 -3.46 -1.2 C -2.705 .897 -1.697 1.124 0 0 " fill="#ffffff"/>
<path transform="matrix(1,0,0,-1,654.7266,1649.0609)" d="M 0 0 C .733 .574 1.423 1.215 2.202 1.721 C 12.462 8.38 18.013 17.814 18.964 29.987 C 19.196 32.927 19.989 33.731 22.912 33.523 C 25.318 33.354 27.709 32.886 30.09 32.464 C 31.489 32.213 32.025 31.293 31.72 29.878 C 28.381 14.412 19.532 2.574 2.32 -.493 C 1.639 -.615 .933 -.573 .238 -.61 C .16 -.403 .079 -.205 0 0 " fill="#ffffff"/>
<path transform="matrix(1,0,0,-1,469.4683,1622.347)" d="M 0 0 C -.151 -.255 -.302 -.508 -.454 -.761 C 1.64 -3.126 3.731 -5.494 5.827 -7.856 C 6.06 -7.734 6.294 -7.611 6.529 -7.489 C 6.529 -5.577 6.637 -3.653 6.464 -1.757 C 6.408 -1.136 5.676 -.146 5.155 -.08 C 3.46 .136 1.721 0 0 0 M -.78 -16.414 C -2.509 -10.146 -4.083 -5.208 -7.605 -1.164 C -7.871 -.861 -8.287 -.498 -8.633 -.498 C -9.619 -.498 -10.606 -.676 -11.591 -.784 C -11.135 -1.48 -10.834 -2.38 -10.204 -2.837 C -6.35 -5.64 -4.164 -9.274 -4.172 -14.121 C -4.174 -14.697 -4.16 -15.389 -3.861 -15.821 C -3.532 -16.292 -2.875 -16.776 -2.339 -16.808 C -1.626 -16.845 -.889 -16.444 -.78 -16.414 M -5.944 20.067 C .809 20.194 -.128 19.047 .011 24.992 C .044 26.489 -.46 27.136 -2.002 27.074 C -4.006 26.995 -6.015 27.059 -8.019 27.059 C -11.636 27.055 -11.636 27.055 -11.636 23.548 C -11.634 20.074 -11.634 20.074 -8.2 20.067 L -5.944 20.067 M -5.665 28.67 C .892 28.826 -.051 27.432 -.089 34.408 C -.091 35.023 -1.146 36.111 -1.774 36.161 C -4.444 36.357 -7.141 36.342 -9.818 36.173 C -10.445 36.132 -11.433 35.264 -11.547 34.642 C -12.511 29.386 -11.874 28.668 -6.669 28.67 Z M 4.994 13.005 C 4.887 13.309 4.78 13.612 4.674 13.914 C 3.711 13.989 2.684 13.886 1.803 14.203 C 1.108 14.45 .037 15.276 .089 15.732 C .431 18.63 -1.3 18.663 -3.33 18.54 C -4.5 18.474 -5.678 18.53 -6.85 18.53 C -11.979 18.53 -11.941 18.532 -11.651 13.354 C -11.567 11.816 -11.076 11.067 -9.409 11.103 C -5.805 11.179 -2.185 10.972 1.403 11.216 C 2.637 11.297 3.799 12.379 4.994 13.005 M 16.416 4.615 C 15.864 6.369 17.515 8.77 14.677 8.827 C 6.406 8.987 -1.872 8.916 -10.144 8.811 C -10.696 8.808 -11.462 7.842 -11.717 7.17 C -11.992 6.437 -11.711 5.513 -11.802 4.687 C -12.014 2.757 -11.125 2.282 -9.315 2.322 C -4.468 2.429 .382 2.278 5.224 2.42 C 6.343 2.451 7.672 2.99 8.504 3.741 C 11.963 6.86 11.907 6.923 16.416 4.615 M -7.492 39.441 C -3.552 37.637 -.889 38.115 1.177 40.343 C 4.015 43.396 5.46 43.526 8.924 41.046 C 9.878 40.362 10.991 39.825 11.752 38.978 C 12.231 38.439 12.551 36.882 12.329 36.747 C 10.506 35.584 10.939 33.843 10.929 32.222 C 10.903 27.78 10.922 23.337 10.922 18.892 C 10.922 15.034 11.666 13.972 15.386 12.526 L 15.386 18.964 C 15.386 27.265 15.421 35.566 15.332 43.864 C 15.323 44.812 14.66 46.556 14.246 46.57 C 10.688 46.704 6.959 47.119 3.597 46.247 C .734 45.51 -1.723 43.186 -4.345 41.544 C -5.305 40.942 -6.228 40.286 -7.492 39.441 M 15.471 50.743 C 15.553 52.124 15.621 52.775 15.625 53.428 C 15.672 57.555 15.67 57.555 11.498 57.555 C .348 57.555 -10.803 57.587 -21.953 57.543 C -27.351 57.521 -27.212 58.623 -27.251 52.022 C -27.264 49.984 -26.562 49.215 -24.458 49.25 C -18.427 49.359 -12.374 49.555 -6.359 49.208 C -.867 48.89 3.913 49.396 6.873 54.829 C 7.782 56.498 9.167 56.125 10.447 54.996 C 11.931 53.686 13.47 52.431 15.471 50.743 M -13.822 37.899 C -13.201 40.46 -12.535 42.829 -12.121 45.244 C -12.056 45.639 -13.1 46.641 -13.656 46.657 C -17.506 46.799 -21.369 46.836 -25.219 46.726 C -27.145 46.666 -26.968 44.981 -26.972 43.675 C -27.001 36.125 -26.921 28.575 -27.017 21.028 C -27.064 17.262 -27.183 13.47 -27.656 9.74 C -29.279 -3.04 -34.625 -13.964 -44.358 -22.577 C -45.352 -23.458 -46.458 -24.248 -47.618 -24.885 C -48.094 -25.146 -49.044 -25.124 -49.426 -24.807 C -49.818 -24.483 -49.888 -23.642 -49.891 -23.023 C -49.891 -22.558 -49.6 -22.07 -49.366 -21.63 C -42.173 -8.195 -39.749 6.312 -39.729 21.349 C -39.713 34.687 -39.732 48.021 -39.726 61.357 C -39.724 64.918 -38.814 65.618 -35.707 63.896 C -30.036 60.756 -24.106 59.683 -17.631 59.919 C -7.831 60.277 1.996 60.09 11.805 59.959 C 14.148 59.926 15.834 60.546 17.115 62.478 C 17.667 63.31 18.395 64.026 19.014 64.815 C 20.429 66.625 22.145 66.701 23.88 65.478 C 26.068 63.93 28.159 62.243 30.259 60.576 C 31.775 59.372 31.982 57.511 30.895 56.311 C 27.2 52.224 27.369 47.256 27.13 42.324 C 26.58 30.922 26.15 19.519 28.244 8.216 C 28.729 5.606 29.724 3.081 30.615 .563 C 30.895 -.225 31.603 -.866 32.112 -1.575 C 32.389 -1.581 32.667 -1.591 32.946 -1.599 C 34.308 2.577 35.671 6.753 37.037 10.934 C 37.378 10.923 37.717 10.917 38.06 10.91 C 38.268 9.913 38.71 8.9 38.642 7.919 C 38.254 2.147 37.675 -3.613 37.332 -9.385 C 37.24 -10.903 37.745 -12.462 37.995 -13.997 C 38.312 -15.957 39.052 -17.948 38.886 -19.864 C 38.549 -23.732 35.396 -25.537 31.784 -24.049 C 26.215 -21.76 22.902 -17.364 21.068 -11.77 C 20.433 -9.827 19.953 -7.837 19.399 -5.868 C 19.16 -5.85 18.918 -5.825 18.681 -5.804 C 18.424 -6.571 18.013 -7.329 17.939 -8.112 C 17.126 -16.972 12.549 -23.242 4.833 -27.396 C -.128 -30.069 -2.835 -28.54 -2.968 -22.974 C -3.043 -19.825 -4.699 -17.472 -8.046 -16.624 C -10.939 -15.888 -12.224 -14.315 -12.501 -11.392 C -12.694 -9.344 -13.337 -7.305 -14.022 -5.348 C -14.329 -4.467 -15.097 -3.589 -15.892 -3.086 C -16.463 -2.728 -17.429 -2.987 -18.216 -2.974 C -18.171 -3.724 -18.334 -4.574 -18.043 -5.213 C -16.721 -8.082 -15.135 -10.829 -13.935 -13.743 C -13.458 -14.905 -13.551 -16.396 -13.692 -17.708 C -13.935 -19.937 -16.031 -21.433 -18.395 -21.309 C -20.634 -21.185 -21.859 -19.764 -22.104 -17.359 C -23.951 .615 -23.228 18.645 -23.334 36.659 C -23.358 40.46 -21.812 41.506 -18.284 40.07 C -16.76 39.45 -15.316 38.633 -13.822 37.899 " fill="#ffffff"/>
<path transform="matrix(1,0,0,-1,445.771,1639.9877)" d="M 0 0 C -.494 -3.795 -1.731 -5.698 -4.304 -6.001 C -6.927 -6.309 -8.696 -4.561 -8.399 -1.991 C -8.014 1.317 -7.73 4.632 -7.253 7.925 C -7.127 8.778 -6.343 10.258 -6.014 10.217 C -4.993 10.088 -3.507 9.609 -3.166 8.837 C -1.904 5.982 -1.025 2.958 0 0 " fill="#ffffff"/>
<path transform="matrix(1,0,0,-1,562.9331,1623.6127)" d="M 0 0 C 7.794 0 15.588 .031 23.383 -.024 C 25.281 -.038 26.176 .612 26.13 2.591 C 26.062 5.776 26.062 8.96 26.135 12.143 C 26.176 14.028 25.452 14.929 23.499 14.927 C 7.91 14.906 -7.678 14.903 -23.265 14.925 C -25.234 14.929 -25.917 14.002 -25.867 12.128 C -25.795 9.11 -25.733 6.089 -25.884 3.08 C -26.01 .604 -24.996 -.085 -22.625 -.045 C -15.086 .072 -7.541 0 0 0 M -.023 -17.581 C 7.777 -17.581 15.572 -17.549 23.37 -17.602 C 25.251 -17.616 26.176 -16.985 26.135 -14.994 C 26.062 -11.723 26.075 -8.455 26.127 -5.184 C 26.158 -3.351 25.303 -2.622 23.536 -2.624 C 7.94 -2.637 -7.655 -2.645 -23.249 -2.62 C -25.217 -2.613 -25.914 -3.521 -25.872 -5.399 C -25.802 -8.505 -25.77 -11.607 -25.883 -14.705 C -25.961 -16.904 -25.075 -17.644 -22.911 -17.616 C -15.28 -17.529 -7.654 -17.581 -.023 -17.581 M -38.508 -3.596 C -38.508 3.538 -38.534 10.668 -38.5 17.801 C -38.48 21.847 -36.417 23.229 -33.071 21.002 C -28.841 18.189 -24.371 17.64 -19.468 17.699 C -4.706 17.873 10.061 17.804 24.828 17.75 C 27.197 17.742 28.978 18.377 30.453 20.346 C 32.106 22.556 33.472 22.566 35.497 20.714 C 37.727 18.678 39.861 16.538 42.1 14.517 C 43.808 12.975 43.919 11.269 42.499 9.649 C 40.333 7.188 39.931 4.349 39.97 1.23 C 40.064 -6.233 39.898 -13.704 40.053 -21.169 C 40.105 -23.787 39.041 -25.244 36.776 -26.161 C 34.367 -27.14 31.989 -28.185 29.597 -29.203 C 27.751 -29.993 26.865 -29.275 26.809 -27.384 C 26.758 -25.703 26.75 -24.024 26.8 -22.35 C 26.844 -20.74 26.071 -20.038 24.524 -20.058 C 24.107 -20.064 23.686 -20.053 23.265 -20.053 C 8.249 -20.053 -6.769 -20.048 -21.785 -20.054 C -25.121 -20.056 -25.264 -20.089 -25.096 -23.421 C -24.992 -25.541 -25.659 -26.689 -27.724 -27.261 C -29.739 -27.816 -31.652 -28.733 -33.656 -29.338 C -36.476 -30.186 -38.485 -28.69 -38.498 -25.742 C -38.534 -18.361 -38.508 -10.979 -38.508 -3.596 " fill="#ffffff"/>
<path transform="matrix(1,0,0,-1,565.4336,1578.555)" d="M 0 0 C 4.77 0 9.543 .035 14.314 -.015 C 16.067 -.032 16.972 .572 16.924 2.457 C 16.854 5.215 16.876 7.979 16.916 10.742 C 16.939 12.353 16.196 12.973 14.625 12.971 C 4.827 12.939 -4.965 12.929 -14.758 12.976 C -16.542 12.986 -17.105 12.232 -17.047 10.55 C -16.959 7.958 -16.921 5.355 -17.058 2.768 C -17.167 .687 -16.392 -.072 -14.316 -.032 C -9.545 .064 -4.771 -.002 0 0 M -.008 -2.323 C -4.863 -2.323 -9.722 -2.363 -14.58 -2.302 C -16.394 -2.282 -17.167 -2.954 -17.1 -4.819 C -17.004 -7.494 -17.008 -10.181 -17.103 -12.855 C -17.165 -14.684 -16.488 -15.395 -14.623 -15.385 C -4.907 -15.328 4.81 -15.33 14.524 -15.383 C 16.252 -15.392 16.968 -14.741 16.931 -13.028 C 16.88 -10.434 16.829 -7.833 16.946 -5.24 C 17.046 -3.1 16.3 -2.229 14.065 -2.286 C 9.375 -2.408 4.685 -2.323 -.008 -2.323 M -31.281 -.789 C -31.281 5.333 -31.299 11.453 -31.276 17.577 C -31.259 21.547 -29.583 22.67 -26.311 20.402 C -20.657 16.482 -14.587 15.27 -7.798 15.628 C -.191 16.034 7.458 15.787 15.087 15.685 C 17.284 15.654 19.006 16.185 20.35 17.957 C 20.952 18.752 21.729 19.413 22.42 20.149 C 23.941 21.757 25.534 21.96 27.267 20.457 C 29.289 18.693 31.295 16.908 33.396 15.246 C 35.135 13.864 35.327 12.274 34.05 10.666 C 32.3 8.463 32.037 5.988 32.054 3.333 C 32.106 -3.292 32.008 -9.916 32.104 -16.54 C 32.141 -18.98 31.116 -20.261 28.813 -20.825 C 25.722 -21.583 22.654 -22.438 19.595 -23.318 C 17.701 -23.863 16.785 -23.216 17.016 -21.278 C 17.33 -18.648 16.139 -18.012 13.682 -18.04 C 4.375 -18.155 -4.934 -18.088 -14.242 -18.088 C -15.695 -18.086 -17.153 -17.911 -17.229 -20.117 C -17.243 -20.563 -18.237 -21.187 -18.88 -21.372 C -21.461 -22.099 -24.066 -22.746 -26.686 -23.312 C -29.974 -24.02 -31.268 -22.965 -31.276 -19.658 C -31.295 -13.368 -31.281 -7.08 -31.281 -.789 " fill="#ffffff"/>
</g>
</g>
</g>
</svg>
